<?xml version="1.0" encoding="UTF-8"?>
<!DOCTYPE svg PUBLIC "-//W3C//DTD SVG 1.1//EN" "http://www.w3.org/Graphics/SVG/1.1/DTD/svg11.dtd">
<svg xmlns="http://www.w3.org/2000/svg" version="1.1" width="6004px" height="963px" style="shape-rendering:geometricPrecision; text-rendering:geometricPrecision; image-rendering:optimizeQuality; fill-rule:evenodd; clip-rule:evenodd" xmlns:xlink="http://www.w3.org/1999/xlink">
<g><path style="opacity:0.999" fill="#0098ff" d="M 5057.5,1.5 C 5199.27,-1.3252 5339.94,9.84147 5479.5,35C 5601.01,57.1266 5721.34,84.4599 5840.5,117C 5894.09,131.273 5947.59,145.773 6001,160.5C 6001.5,427.166 6001.67,693.833 6001.5,960.5C 4001.5,960.667 2001.5,960.5 1.5,960C 105.643,889.424 210.643,820.091 316.5,752C 428.948,680.591 545.948,616.591 667.5,560C 761.151,516.686 858.151,482.686 958.5,458C 1099.7,425.734 1242.36,417.067 1386.5,432C 1488.86,442.394 1590.2,459.061 1690.5,482C 1743.31,494.037 1795.98,506.703 1848.5,520C 1982.33,555.291 2116.33,589.957 2250.5,624C 2370.49,654.065 2491.83,677.065 2614.5,693C 2803.1,718.214 2989.44,706.881 3173.5,659C 3293.17,626.667 3409.84,586 3523.5,537C 3606.88,501.312 3689.55,463.979 3771.5,425C 3906.96,358.599 4043.63,294.933 4181.5,234C 4311.58,176.802 4444.58,127.136 4580.5,85C 4708.82,45.5358 4839.82,19.5358 4973.5,7C 5001.64,4.82733 5029.64,2.994 5057.5,1.5 Z"/></g>
</svg>
